HIERARCHY
ROOT hip
{
	OFFSET 0.000000 0.000000 0.000000
	CHANNELS 6 Xposition Yposition Zposition Xrotation Yrotation Zrotation
	JOINT mSpine1
	{
		OFFSET 0.0000 3.3100 -0.0000
		CHANNELS 3 Xrotation Yrotation Zrotation
		JOINT mSpine2
		{
			OFFSET 0.0000 -3.3100 0.0000
			CHANNELS 3 Xrotation Yrotation Zrotation
			JOINT abdomen
			{
				OFFSET 0.0000 3.3100 -0.0000
				CHANNELS 3 Xrotation Yrotation Zrotation
				JOINT mSpine3
				{
					OFFSET 0.0000 8.0660 -0.6050
					CHANNELS 3 Xrotation Yrotation Zrotation
					JOINT mSpine4
					{
						OFFSET 0.0000 -8.0660 0.6050
						CHANNELS 3 Xrotation Yrotation Zrotation
						JOINT chest
						{
							OFFSET 0.0000 8.0660 -0.6050
							CHANNELS 3 Xrotation Yrotation Zrotation
							JOINT neck
							{
								OFFSET 0.0000 9.8861 -0.3705
								CHANNELS 3 Xrotation Yrotation Zrotation
								JOINT head
								{
									OFFSET 0.0000 2.9776 -0.0000
									CHANNELS 3 Xrotation Yrotation Zrotation
									End Site
									{
										OFFSET 0.0000 3.1102 -0.0000
									}
								}
							}
							JOINT lCollar
							{
								OFFSET 2.8220 6.5116 -0.8157
								CHANNELS 3 Xrotation Yrotation Zrotation
								JOINT lShldr
								{
									OFFSET 3.1102 0.0000 0.0000
									CHANNELS 3 Xrotation Yrotation Zrotation
									JOINT lForeArm
									{
										OFFSET 10.9354 0.0000 0.0000
										CHANNELS 3 Xrotation Yrotation Zrotation
										JOINT lHand
										{
											OFFSET 9.5165 0.0000 0.0000
											CHANNELS 3 Xrotation Yrotation Zrotation
											End Site
											{
												OFFSET 2.3622 0.0000 0.0000
											}
										}
									}
								}
							}
							JOINT rCollar
							{
								OFFSET -2.8346 6.5116 -0.8157
								CHANNELS 3 Xrotation Yrotation Zrotation
								JOINT rShldr
								{
									OFFSET -3.1267 0.0000 0.0000
									CHANNELS 3 Xrotation Yrotation Zrotation
									JOINT rForeArm
									{
										OFFSET -10.9354 0.0000 0.0000
										CHANNELS 3 Xrotation Yrotation Zrotation
										JOINT rHand
										{
											OFFSET -9.5236 0.0000 0.0000
											CHANNELS 3 Xrotation Yrotation Zrotation
											End Site
											{
												OFFSET -2.3622 0.0000 0.0000
											}
										}
									}
								}
							}
						}
					}
				}
			}
		}
	}
	JOINT rThigh
	{
		OFFSET -5.0711 -1.6176 1.3236
		CHANNELS 3 Xrotation Yrotation Zrotation
		JOINT rShin
		{
			OFFSET 1.9148 -19.3276 -0.0307
			CHANNELS 3 Xrotation Yrotation Zrotation
			JOINT rFoot
			{
				OFFSET 0.0000 -18.4446 -1.1366
				CHANNELS 3 Xrotation Yrotation Zrotation
				End Site
				{
					OFFSET 0.0000 -2.3873 4.4077
				}
			}
		}
	}
	JOINT lThigh
	{
		OFFSET 4.9907 -1.6141 1.3290
		CHANNELS 3 Xrotation Yrotation Zrotation
		JOINT lShin
		{
			OFFSET -1.7940 -19.3328 -0.0349
			CHANNELS 3 Xrotation Yrotation Zrotation
			JOINT lFoot
			{
				OFFSET 0.0543 -18.4428 -1.1373
				CHANNELS 3 Xrotation Yrotation Zrotation
				End Site
				{
					OFFSET 0.0000 -2.3866 4.4077
				}
			}
		}
	}
}
MOTION
Frames: 14
Frame Time: 0.041667
0.0000 42.0084 0.0000 0.0000 0.0000 0.0000 0.0000 0.0000 0.0000 0.0000 0.0000 0.0000 0.0000 0.0000 0.0000 0.0000 0.0000 0.0000 0.0000 0.0000 0.0000 0.0000 0.0000 0.0000 0.0000 0.0000 0.0000 0.0000 0.0000 0.0000 0.0000 0.0000 0.0000 0.0000 0.0000 0.0000 0.0000 0.0000 0.0000 0.0000 0.0000 0.0000 0.0000 0.0000 0.0000 0.0000 0.0000 0.0000 0.0000 0.0000 0.0000 0.0000 0.0000 0.0000 0.0000 0.0000 0.0000 0.0000 0.0000 0.0000 0.0000 0.0000 0.0000 0.0000 0.0000 0.0000 0.0000 0.0000 0.0000 0.0000 0.0000 0.0000 
0.0000 4.6436 -3.3018 85.9750 0.0000 0.0000 0.0000 0.0000 0.0000 0.0000 0.0000 0.0000 -9.8779 0.0000 0.0000 0.0000 0.0000 0.0000 0.0000 0.0000 0.0000 -20.5485 0.0000 0.0000 -11.9987 0.0000 0.0000 -24.2723 0.0000 0.0000 -19.7695 2.1380 6.6659 -51.1016 12.2746 -101.1234 12.7398 -141.9463 -12.7387 -14.2487 5.7358 28.0332 -19.4120 0.1010 -6.1898 -51.2465 -10.7819 102.2461 12.7390 141.9510 13.5370 -15.7917 -0.3211 -36.1553 2.6130 9.6559 -15.2207 129.7148 -5.9322 -8.0410 44.4193 -3.2336 -19.4389 2.6130 -9.6559 15.2207 70.4935 6.2527 -13.7419 47.2365 3.9364 19.8350 
0.0000 4.6436 -3.3018 85.9750 0.0000 0.0000 0.0000 0.0000 0.0000 0.0000 0.0000 0.0000 -9.8779 0.0000 0.0000 0.0000 0.0000 0.0000 0.0000 0.0000 0.0000 -20.5485 0.0000 0.0000 -11.9987 0.0000 0.0000 -24.2723 0.0000 0.0000 -19.7695 2.1380 6.6659 -51.1016 12.2746 -101.1234 12.7398 -141.9463 -12.7387 -14.2487 5.7358 28.0332 -19.4120 0.1010 -6.1898 -51.2465 -10.7819 102.2461 12.7390 141.9510 13.5370 -15.7917 -0.3211 -36.1553 2.6130 9.6559 -15.2207 129.6618 -5.9152 -8.0337 44.4193 -3.2336 -19.4389 2.6130 -9.6559 15.2207 70.5430 6.2312 -13.7259 47.2365 3.9364 19.8350 
0.0000 4.6436 -3.3018 85.9750 0.0000 0.0000 0.0000 0.0000 0.0000 0.0000 0.0000 0.0000 -9.8779 0.0000 0.0000 0.0000 0.0000 0.0000 0.0000 0.0000 0.0000 -20.5485 0.0000 0.0000 -11.9987 0.0000 0.0000 -24.2723 0.0000 0.0000 -19.7695 2.1380 6.6659 -51.1016 12.2746 -101.1234 12.7398 -141.9463 -12.7387 -14.2487 5.7358 28.0332 -19.4120 0.1010 -6.1898 -51.2465 -10.7819 102.2461 12.7390 141.9510 13.5370 -15.7917 -0.3211 -36.1553 2.6130 9.6559 -15.2207 129.5018 -5.8639 -8.0114 44.4193 -3.2336 -19.4389 2.6130 -9.6559 15.2207 70.6923 6.1666 -13.6775 47.2365 3.9364 19.8350 
0.0000 4.6436 -3.3018 85.9750 0.0000 0.0000 0.0000 0.0000 0.0000 0.0000 0.0000 0.0000 -9.8779 0.0000 0.0000 0.0000 0.0000 0.0000 0.0000 0.0000 0.0000 -20.5485 0.0000 0.0000 -11.9987 0.0000 0.0000 -24.2723 0.0000 0.0000 -19.7695 2.1380 6.6659 -51.1016 12.2746 -101.1234 12.7398 -141.9463 -12.7387 -14.2487 5.7358 28.0332 -19.4120 0.1010 -6.1898 -51.2465 -10.7819 102.2461 12.7390 141.9510 13.5370 -15.7917 -0.3211 -36.1553 2.6130 9.6559 -15.2207 129.2338 -5.7781 -7.9733 44.4193 -3.2337 -19.4389 2.6130 -9.6559 15.2207 70.9424 6.0591 -13.5959 47.2365 3.9364 19.8350 
0.0000 4.6436 -3.3018 85.9750 0.0000 0.0000 0.0000 0.0000 0.0000 0.0000 0.0000 0.0000 -9.8779 0.0000 0.0000 0.0000 0.0000 0.0000 0.0000 0.0000 0.0000 -20.5485 0.0000 0.0000 -11.9987 0.0000 0.0000 -24.2723 0.0000 0.0000 -19.7695 2.1380 6.6659 -51.1016 12.2746 -101.1234 12.7398 -141.9463 -12.7387 -14.2487 5.7358 28.0332 -19.4120 0.1010 -6.1898 -51.2465 -10.7819 102.2461 12.7390 141.9510 13.5370 -15.7917 -0.3211 -36.1553 2.6130 9.6559 -15.2207 128.8572 -5.6579 -7.9179 44.4192 -3.2336 -19.4389 2.6130 -9.6559 15.2207 71.2943 5.9093 -13.4797 47.2365 3.9364 19.8350 
0.0000 4.6436 -3.3018 85.9750 0.0000 0.0000 0.0000 0.0000 0.0000 0.0000 0.0000 0.0000 -9.8779 0.0000 0.0000 0.0000 0.0000 0.0000 0.0000 0.0000 0.0000 -20.5485 0.0000 0.0000 -11.9987 0.0000 0.0000 -24.2723 0.0000 0.0000 -19.7695 2.1380 6.6659 -51.1016 12.2746 -101.1234 12.7398 -141.9463 -12.7387 -14.2487 5.7358 28.0332 -19.4120 0.1010 -6.1898 -51.2465 -10.7819 102.2461 12.7390 141.9510 13.5370 -15.7917 -0.3211 -36.1553 2.6130 9.6559 -15.2207 128.3711 -5.5034 -7.8436 44.4192 -3.2336 -19.4389 2.6130 -9.6559 15.2207 71.7489 5.7183 -13.3273 47.2365 3.9364 19.8350 
0.0000 4.6436 -3.3018 85.9750 0.0000 0.0000 0.0000 0.0000 0.0000 0.0000 0.0000 0.0000 -9.8779 0.0000 0.0000 0.0000 0.0000 0.0000 0.0000 0.0000 0.0000 -20.5485 0.0000 0.0000 -11.9987 0.0000 0.0000 -24.2723 0.0000 0.0000 -19.7695 2.1380 6.6659 -51.1016 12.2746 -101.1234 12.7398 -141.9463 -12.7387 -14.2487 5.7358 28.0332 -19.4120 0.1010 -6.1898 -51.2465 -10.7819 102.2461 12.7390 141.9510 13.5370 -15.7917 -0.3211 -36.1553 2.6130 9.6559 -15.2207 127.7752 -5.3152 -7.7478 44.4193 -3.2336 -19.4389 2.6130 -9.6559 15.2207 72.3071 5.4877 -13.1369 47.2365 3.9364 19.8350 
0.0000 4.6436 -3.3018 85.9750 0.0000 0.0000 0.0000 0.0000 0.0000 0.0000 0.0000 0.0000 -9.8779 0.0000 0.0000 0.0000 0.0000 0.0000 0.0000 0.0000 0.0000 -20.5485 0.0000 0.0000 -11.9987 0.0000 0.0000 -24.2723 0.0000 0.0000 -19.7695 2.1380 6.6659 -51.1016 12.2746 -101.1234 12.7398 -141.9463 -12.7387 -14.2487 5.7358 28.0332 -19.4120 0.1010 -6.1898 -51.2465 -10.7819 102.2461 12.7390 141.9510 13.5370 -15.7917 -0.3211 -36.1553 2.6130 9.6559 -15.2207 127.0694 -5.0940 -7.6281 44.4193 -3.2336 -19.4389 2.6130 -9.6559 15.2207 72.9694 5.2198 -12.9063 47.2365 3.9364 19.8350 
0.0000 4.6436 -3.3018 85.9750 0.0000 0.0000 0.0000 0.0000 0.0000 0.0000 0.0000 0.0000 -9.8779 0.0000 0.0000 0.0000 0.0000 0.0000 0.0000 0.0000 0.0000 -20.5485 0.0000 0.0000 -11.9987 0.0000 0.0000 -24.2723 0.0000 0.0000 -19.7695 2.1380 6.6659 -51.1016 12.2746 -101.1234 12.7398 -141.9463 -12.7387 -14.2487 5.7358 28.0332 -19.4120 0.1010 -6.1898 -51.2465 -10.7819 102.2461 12.7390 141.9510 13.5370 -15.7917 -0.3211 -36.1553 2.6130 9.6559 -15.2207 126.2538 -4.8412 -7.4811 44.4193 -3.2336 -19.4389 2.6130 -9.6559 15.2207 73.7362 4.9176 -12.6331 47.2365 3.9364 19.8350 
0.0000 4.6436 -3.3018 85.9750 0.0000 0.0000 0.0000 0.0000 0.0000 0.0000 0.0000 0.0000 -9.8779 0.0000 0.0000 0.0000 0.0000 0.0000 0.0000 0.0000 0.0000 -20.5485 0.0000 0.0000 -11.9987 0.0000 0.0000 -24.2723 0.0000 0.0000 -19.7695 2.1380 6.6659 -51.1016 12.2746 -101.1234 12.7398 -141.9463 -12.7387 -14.2487 5.7358 28.0332 -19.4120 0.1010 -6.1898 -51.2465 -10.7819 102.2461 12.7390 141.9510 13.5370 -15.7917 -0.3211 -36.1553 2.6130 9.6559 -15.2207 125.3290 -4.5583 -7.3033 44.4193 -3.2336 -19.4389 2.6130 -9.6559 15.2207 74.6078 4.5846 -12.3150 47.2365 3.9364 19.8350 
0.0000 4.6436 -3.3018 85.9750 0.0000 0.0000 0.0000 0.0000 0.0000 0.0000 0.0000 0.0000 -9.8779 0.0000 0.0000 0.0000 0.0000 0.0000 0.0000 0.0000 0.0000 -20.5485 0.0000 0.0000 -11.9987 0.0000 0.0000 -24.2723 0.0000 0.0000 -19.7695 2.1380 6.6659 -51.1016 12.2746 -101.1234 12.7398 -141.9463 -12.7387 -14.2487 5.7358 28.0332 -19.4120 0.1010 -6.1898 -51.2465 -10.7819 102.2461 12.7390 141.9510 13.5370 -15.7917 -0.3211 -36.1553 2.6130 9.6559 -15.2207 124.2961 -4.2476 -7.0910 44.4193 -3.2336 -19.4389 2.6130 -9.6559 15.2207 75.5839 4.2251 -11.9495 47.2365 3.9364 19.8350 
0.0000 4.6436 -3.3018 85.9750 0.0000 0.0000 0.0000 0.0000 0.0000 0.0000 0.0000 0.0000 -9.8779 0.0000 0.0000 0.0000 0.0000 0.0000 0.0000 0.0000 0.0000 -20.5485 0.0000 0.0000 -11.9987 0.0000 0.0000 -24.2723 0.0000 0.0000 -19.7695 2.1380 6.6659 -51.1016 12.2746 -101.1234 12.7398 -141.9463 -12.7387 -14.2487 5.7358 28.0332 -19.4120 0.1010 -6.1898 -51.2465 -10.7819 102.2461 12.7390 141.9510 13.5370 -15.7917 -0.3211 -36.1553 2.6130 9.6559 -15.2207 123.1565 -3.9122 -6.8402 44.4193 -3.2336 -19.4389 2.6130 -9.6559 15.2207 76.6639 3.8444 -11.5346 47.2365 3.9364 19.8350 
0.0000 4.6436 -3.3018 85.9750 0.0000 0.0000 0.0000 0.0000 0.0000 0.0000 0.0000 0.0000 -9.8779 0.0000 0.0000 0.0000 0.0000 0.0000 0.0000 0.0000 0.0000 -20.5485 0.0000 0.0000 -11.9987 0.0000 0.0000 -24.2723 0.0000 0.0000 -19.7695 2.1380 6.6659 -51.1016 12.2746 -101.1234 12.7398 -141.9463 -12.7387 -14.2487 5.7358 28.0332 -19.4120 0.1010 -6.1898 -51.2465 -10.7819 102.2461 12.7390 141.9510 13.5370 -15.7917 -0.3211 -36.1553 2.6130 9.6559 -15.2207 121.9123 -3.5556 -6.5468 44.4193 -3.2336 -19.4389 2.6130 -9.6559 15.2207 77.8469 3.4481 -11.0683 47.2365 3.9364 19.8350 
